<svg id="图层_1" data-name="图层 1" xmlns="http://www.w3.org/2000/svg" viewBox="0 0 462.11 452.18"><defs><style>.cls-1,.cls-2{fill:#fff;}.cls-2{stroke:#fff;stroke-miterlimit:10;}</style></defs><path class="cls-1" d="M279.33,42.43l-3.36.49c-15.6,2.3-28.35,5.72-36.86,9.91l-.22.11-.22-.11a68.14,68.14,0,0,0-6.59-2.78c.25-.09.49-.18.75-.26l.74-.25a164.2,164.2,0,0,1,27.36-6.12l6.72-1-6.72-1a166.23,166.23,0,0,1-27.36-6.12l-.75-.25-.74-.26A68.14,68.14,0,0,0,238.67,32l.22-.11.22.11c8.51,4.18,21.26,7.61,36.86,9.9Z"/><path class="cls-1" d="M215.48,50.05a67.32,67.32,0,0,0-6.6,2.78l-.22.11-.22-.11c-8.51-4.19-21.26-7.61-36.86-9.91l-3.36-.49,3.36-.5c15.6-2.29,28.35-5.72,36.86-9.9l.22-.11.22.11a68.14,68.14,0,0,0,6.59,2.78l-.74.26-.75.25a166.23,166.23,0,0,1-27.36,6.12l-6.72,1,6.72,1A164.33,164.33,0,0,1,214,49.54l.73.25Z"/><path class="cls-1" d="M254.48,42.43a145.91,145.91,0,0,0-23.91,6h0l-.73.28h0l-.74.28c-1.91.72-3.68,1.48-5.3,2.26-1.63-.78-3.4-1.54-5.31-2.26l-.75-.29-.74-.27a146.44,146.44,0,0,0-23.91-6,145.82,145.82,0,0,0,23.89-6l.75-.27.75-.28c1.91-.72,3.69-1.48,5.32-2.26,1.63.78,3.4,1.54,5.31,2.26l.75.28.75.27A145.82,145.82,0,0,0,254.48,42.43Z"/><path class="cls-2" d="M139.91,413h0a22.57,22.57,0,0,0-7.87,2.92h0a22.43,22.43,0,0,0-7.86-2.92h0A22,22,0,0,0,132,410.1h0a22.18,22.18,0,0,0,7.87,2.92Z"/><path class="cls-1" d="M8.69,413l54.43-.35,13.61-.09H90.34c9.07.09,18.14.17,27.21.45v.1c-9.07.29-18.14.36-27.21.45H76.73l-13.61-.1-54.43-.35Z"/><path class="cls-2" d="M175.17,413h0a22.57,22.57,0,0,1,7.87,2.92h0a22.42,22.42,0,0,1,7.87-2.92h0A22,22,0,0,1,183,410.1h0a22.18,22.18,0,0,1-7.87,2.92Z"/><path class="cls-1" d="M306.39,413.07l-54.43.35-13.61.1H224.74c-9.07-.09-18.14-.16-27.21-.45V413c9.07-.28,18.14-.36,27.21-.45h13.61l13.61.09,54.43.35Z"/><path class="cls-1" d="M23.94,78.54h0c-3.76-15.62-9.4-28.46-16.26-37h0c6.86-8.54,12.5-21.38,16.26-37h0c3.75,15.62,9.39,28.46,16.25,37h0c-6.86,8.55-12.5,21.39-16.25,37Z"/><polygon class="cls-1" points="48.15 40.03 148.8 41.53 48.15 43.03 48.15 40.03"/><polygon class="cls-1" points="23.94 175.47 22.44 87.49 25.44 87.49 23.94 175.47"/><circle class="cls-1" cx="23.94" cy="80.65" r="2.11"/><circle class="cls-1" cx="42.3" cy="41.64" r="2.11"/><path class="cls-1" d="M436.12,81.38h0c3.75-15.62,9.39-28.47,16.25-37h0c-6.86-8.54-12.5-21.39-16.25-37h0c-3.76,15.62-9.4,28.47-16.26,37h0c6.86,8.54,12.51,21.39,16.26,37Z"/><polygon class="cls-1" points="411.91 45.87 311.26 44.37 411.91 42.87 411.91 45.87"/><polygon class="cls-1" points="436.12 178.31 434.62 90.32 437.62 90.32 436.12 178.31"/><circle class="cls-1" cx="436.12" cy="83.49" r="2.11"/><circle class="cls-1" cx="417.75" cy="44.47" r="2.11"/><path class="cls-1" d="M22.92,304.25h0c-3.75,15.62-9.39,28.46-16.25,37h0c6.86,8.55,12.5,21.39,16.25,37h0c3.75-15.62,9.39-28.46,16.25-37h0c-6.86-8.54-12.5-21.38-16.25-37Z"/><polygon class="cls-1" points="47.13 339.75 147.78 341.25 47.13 342.75 47.13 339.75"/><polygon class="cls-1" points="22.92 207.31 24.42 295.3 21.42 295.3 22.92 207.31"/><circle class="cls-1" cx="22.92" cy="302.14" r="2.11"/><circle class="cls-1" cx="41.28" cy="341.15" r="2.11"/><path class="cls-1" d="M436.12,312.08h0c3.75,15.62,9.39,28.46,16.25,37h0c-6.86,8.55-12.5,21.39-16.25,37h0c-3.76-15.62-9.4-28.46-16.26-37h0c6.86-8.54,12.51-21.38,16.26-37Z"/><polygon class="cls-1" points="411.91 350.58 311.26 349.08 411.91 347.58 411.91 350.58"/><polygon class="cls-1" points="436.12 215.15 437.62 303.13 434.62 303.13 436.12 215.15"/><circle class="cls-1" cx="436.12" cy="309.97" r="2.11"/><circle class="cls-1" cx="417.75" cy="348.98" r="2.11"/></svg>