<svg id="图层_1" data-name="图层 1" xmlns="http://www.w3.org/2000/svg" viewBox="0 0 32.07 73.64"><defs><style>.cls-1{fill:#fff;}</style></defs><path class="cls-1" d="M16,0l.74,2.23C20.29,12.57,25.51,21,31.91,26.65l.16.15-.16.15a42.87,42.87,0,0,0-4.25,4.36c-.13-.16-.27-.32-.39-.49s-.26-.33-.38-.49a63,63,0,0,1-9.34-18.14L16,7.74l-1.51,4.45A64,64,0,0,1,5.19,30.33l-.38.49c-.14.17-.26.33-.4.49A41.76,41.76,0,0,0,.17,27L0,26.8l.17-.15C6.55,21,11.78,12.57,15.27,2.23Z"/><path class="cls-1" d="M27.66,42.32a42,42,0,0,0,4.25,4.37l.16.15-.16.14c-6.4,5.64-11.62,14.09-15.13,24.43L16,73.64l-.77-2.23C11.78,61.07,6.55,52.62.17,47L0,46.84l.17-.15a40.91,40.91,0,0,0,4.24-4.37c.14.17.26.33.4.49s.26.33.38.5a63.92,63.92,0,0,1,9.34,18.13L16,65.9l1.51-4.46A63,63,0,0,1,26.89,43.3c.12-.16.24-.32.38-.48S27.53,42.48,27.66,42.32Z"/><path class="cls-1" d="M16,16.47a59.5,59.5,0,0,0,9.18,15.84h0c.16.16.29.33.43.49h0c.14.17.27.33.43.49a39.54,39.54,0,0,0,3.45,3.51,42.59,42.59,0,0,0-3.45,3.52c-.16.17-.29.34-.45.5l-.41.49A59.88,59.88,0,0,0,16,57.17a59.7,59.7,0,0,0-9.2-15.84,6.1,6.1,0,0,0-.42-.49c-.13-.17-.27-.33-.42-.5a41.22,41.22,0,0,0-3.45-3.53A42.45,42.45,0,0,0,6,33.3l.42-.5a6.19,6.19,0,0,0,.42-.5A59.63,59.63,0,0,0,16,16.47Z"/></svg>